<svg width="40" height="40" viewBox="0 0 40 40" fill="none" xmlns="http://www.w3.org/2000/svg">
<circle cx="20" cy="20" r="20" fill="white"/>
<path fill-rule="evenodd" clip-rule="evenodd" d="M17.429 15.969H21.143V17.819C21.678 16.755 23.05 15.799 25.111 15.799C29.062 15.799 30 17.917 30 21.803V29H26V22.688C26 20.475 25.465 19.227 24.103 19.227C22.214 19.227 21.429 20.572 21.429 22.687V29H17.429V15.969V15.969ZM10.57 28.83H14.57V15.799H10.57V28.83V28.83ZM15.143 11.55C15.1431 11.8853 15.0767 12.2172 14.9474 12.5266C14.8181 12.8359 14.6287 13.1165 14.39 13.352C13.9064 13.8326 13.2518 14.1017 12.57 14.1C11.8894 14.0995 11.2363 13.8312 10.752 13.353C10.5142 13.1167 10.3254 12.8358 10.1963 12.5264C10.0673 12.217 10.0006 11.8852 10 11.55C10 10.873 10.27 10.225 10.753 9.747C11.2369 9.26816 11.8902 8.9997 12.571 9C13.253 9 13.907 9.269 14.39 9.747C14.872 10.225 15.143 10.873 15.143 11.55Z" fill="#333333"/>
</svg>
