<svg width="40" height="40" viewBox="0 0 40 40" fill="none" xmlns="http://www.w3.org/2000/svg">
<circle cx="20" cy="20" r="20" fill="white"/>
<path d="M31.706 13.812C30.871 14.1832 29.974 14.4339 29.031 14.5473C30.004 13.9633 30.7319 13.0442 31.079 11.9614C30.1648 12.5061 29.1643 12.8894 28.121 13.0949C27.4194 12.3434 26.4901 11.8454 25.4773 11.678C24.4646 11.5107 23.4251 11.6834 22.5202 12.1693C21.6154 12.6552 20.8958 13.4272 20.4732 14.3654C20.0505 15.3036 19.9485 16.3555 20.183 17.3578C18.3307 17.2645 16.5186 16.7816 14.8644 15.9404C13.2102 15.0992 11.7508 13.9185 10.581 12.475C10.181 13.1671 9.951 13.9695 9.951 14.8241C9.95055 15.5934 10.1394 16.351 10.5009 17.0296C10.8623 17.7081 11.3852 18.2867 12.023 18.7139C11.2833 18.6903 10.5599 18.4898 9.913 18.1292V18.1893C9.91293 19.2684 10.285 20.3142 10.9662 21.1493C11.6473 21.9845 12.5956 22.5576 13.65 22.7713C12.9638 22.9576 12.2443 22.985 11.546 22.8515C11.8435 23.7799 12.423 24.5918 13.2034 25.1735C13.9837 25.7552 14.9259 26.0775 15.898 26.0954C14.2478 27.3947 12.2099 28.0996 10.112 28.0965C9.74038 28.0966 9.36908 28.0748 9 28.0313C11.1295 29.4046 13.6083 30.1335 16.14 30.1306C24.71 30.1306 29.395 23.011 29.395 16.8362C29.395 16.6356 29.39 16.433 29.381 16.2324C30.2923 15.5714 31.0789 14.7528 31.704 13.815L31.706 13.812V13.812Z" fill="#333333"/>
</svg>
