<svg width="40" height="40" viewBox="0 0 40 40" fill="none" xmlns="http://www.w3.org/2000/svg">
<circle cx="20" cy="20" r="20" fill="white"/>
<path d="M31.5006 14.8702C31.3647 14.384 31.1 13.9438 30.7346 13.5964C30.3589 13.2383 29.8984 12.9821 29.3966 12.8521C27.5186 12.3556 19.9946 12.3556 19.9946 12.3556C16.8579 12.3198 13.722 12.4772 10.6046 12.827C10.1028 12.9667 9.64318 13.2285 9.26662 13.5893C8.89662 13.9464 8.62862 14.3868 8.48862 14.8692C8.15231 16.6865 7.98891 18.5317 8.00062 20.38C7.98862 22.2266 8.15162 24.0712 8.48862 25.8907C8.62562 26.3712 8.89262 26.8095 9.26362 27.1636C9.63462 27.5177 10.0966 27.7735 10.6046 27.9089C12.5076 28.4044 19.9946 28.4044 19.9946 28.4044C23.1353 28.4402 26.2752 28.2828 29.3966 27.9329C29.8984 27.8029 30.3589 27.5468 30.7346 27.1887C31.0999 26.8413 31.3643 26.4011 31.4996 25.9148C31.8447 24.0982 32.0125 22.2523 32.0006 20.4031C32.0266 18.546 31.859 16.6913 31.5006 14.8692V14.8702ZM17.6026 23.8144V16.9465L23.8626 20.381L17.6026 23.8144Z" fill="#333333"/>
</svg>
